<mxfile host="app.diagrams.net" modified="2023-08-24T18:32:05.365Z" agent="Mozilla/5.0 (Windows NT 10.0; Win64; x64) AppleWebKit/537.36 (KHTML, like Gecko) Chrome/115.0.0.0 Safari/537.36" etag="ekeM0OsnKdjto1hP0Ncj" version="21.6.8" type="google">
  <diagram id="ZKO8msdCiUuoRA4G3tad" name="Flipkart System 0">
    <mxGraphModel dx="1050" dy="534" grid="1" gridSize="10" guides="1" tooltips="1" connect="1" arrows="1" fold="1" page="1" pageScale="1" pageWidth="827" pageHeight="1169" math="0" shadow="0">
      <root>
        <mxCell id="0" />
        <mxCell id="1" parent="0" />
        <mxCell id="11NNA-H-o6uc0P_nEHLL-1" style="edgeStyle=orthogonalEdgeStyle;rounded=0;orthogonalLoop=1;jettySize=auto;html=1;entryX=1;entryY=0.5;entryDx=0;entryDy=0;" parent="1" source="11NNA-H-o6uc0P_nEHLL-3" target="11NNA-H-o6uc0P_nEHLL-5" edge="1">
          <mxGeometry relative="1" as="geometry" />
        </mxCell>
        <mxCell id="11NNA-H-o6uc0P_nEHLL-2" style="edgeStyle=orthogonalEdgeStyle;rounded=0;orthogonalLoop=1;jettySize=auto;html=1;entryX=0.5;entryY=0;entryDx=0;entryDy=0;" parent="1" source="11NNA-H-o6uc0P_nEHLL-3" target="11NNA-H-o6uc0P_nEHLL-9" edge="1">
          <mxGeometry relative="1" as="geometry" />
        </mxCell>
        <mxCell id="11NNA-H-o6uc0P_nEHLL-3" value="&lt;font style=&quot;font-size: 20px;&quot;&gt;Flipkart Management System&lt;/font&gt;" style="ellipse;whiteSpace=wrap;html=1;aspect=fixed;" parent="1" vertex="1">
          <mxGeometry x="290" y="180" width="220" height="220" as="geometry" />
        </mxCell>
        <mxCell id="11NNA-H-o6uc0P_nEHLL-4" style="edgeStyle=orthogonalEdgeStyle;rounded=0;orthogonalLoop=1;jettySize=auto;html=1;exitX=1;exitY=0.25;exitDx=0;exitDy=0;entryX=0.018;entryY=0.373;entryDx=0;entryDy=0;entryPerimeter=0;" parent="1" source="11NNA-H-o6uc0P_nEHLL-5" target="11NNA-H-o6uc0P_nEHLL-3" edge="1">
          <mxGeometry relative="1" as="geometry" />
        </mxCell>
        <mxCell id="11NNA-H-o6uc0P_nEHLL-5" value="&lt;font style=&quot;font-size: 20px;&quot;&gt;Admin&lt;/font&gt;" style="rounded=1;whiteSpace=wrap;html=1;" parent="1" vertex="1">
          <mxGeometry x="10" y="235" width="160" height="110" as="geometry" />
        </mxCell>
        <mxCell id="11NNA-H-o6uc0P_nEHLL-6" style="edgeStyle=orthogonalEdgeStyle;rounded=0;orthogonalLoop=1;jettySize=auto;html=1;" parent="1" source="11NNA-H-o6uc0P_nEHLL-7" target="11NNA-H-o6uc0P_nEHLL-3" edge="1">
          <mxGeometry relative="1" as="geometry" />
        </mxCell>
        <mxCell id="11NNA-H-o6uc0P_nEHLL-7" value="&lt;font style=&quot;font-size: 20px;&quot;&gt;Registered Members&lt;/font&gt;" style="rounded=1;whiteSpace=wrap;html=1;" parent="1" vertex="1">
          <mxGeometry x="620" y="235" width="160" height="110" as="geometry" />
        </mxCell>
        <mxCell id="11NNA-H-o6uc0P_nEHLL-8" style="edgeStyle=orthogonalEdgeStyle;rounded=0;orthogonalLoop=1;jettySize=auto;html=1;exitX=0.75;exitY=0;exitDx=0;exitDy=0;entryX=0.68;entryY=0.965;entryDx=0;entryDy=0;entryPerimeter=0;" parent="1" source="11NNA-H-o6uc0P_nEHLL-9" target="11NNA-H-o6uc0P_nEHLL-3" edge="1">
          <mxGeometry relative="1" as="geometry">
            <Array as="points">
              <mxPoint x="440" y="434" />
              <mxPoint x="440" y="434" />
            </Array>
          </mxGeometry>
        </mxCell>
        <mxCell id="11NNA-H-o6uc0P_nEHLL-9" value="&lt;font style=&quot;font-size: 20px;&quot;&gt;Visitors&lt;/font&gt;" style="rounded=1;whiteSpace=wrap;html=1;" parent="1" vertex="1">
          <mxGeometry x="320" y="475" width="160" height="110" as="geometry" />
        </mxCell>
        <mxCell id="11NNA-H-o6uc0P_nEHLL-10" value="" style="endArrow=classic;html=1;rounded=0;" parent="1" edge="1">
          <mxGeometry width="50" height="50" relative="1" as="geometry">
            <mxPoint x="510" y="270" as="sourcePoint" />
            <mxPoint x="620" y="270" as="targetPoint" />
          </mxGeometry>
        </mxCell>
        <mxCell id="11NNA-H-o6uc0P_nEHLL-11" value="Login" style="text;html=1;align=center;verticalAlign=middle;resizable=0;points=[];autosize=1;strokeColor=none;fillColor=none;" parent="1" vertex="1">
          <mxGeometry x="205" y="228" width="50" height="30" as="geometry" />
        </mxCell>
        <mxCell id="11NNA-H-o6uc0P_nEHLL-12" value="Response" style="text;html=1;align=center;verticalAlign=middle;resizable=0;points=[];autosize=1;strokeColor=none;fillColor=none;" parent="1" vertex="1">
          <mxGeometry x="180" y="298" width="80" height="30" as="geometry" />
        </mxCell>
        <mxCell id="11NNA-H-o6uc0P_nEHLL-13" value="Login" style="text;html=1;align=center;verticalAlign=middle;resizable=0;points=[];autosize=1;strokeColor=none;fillColor=none;" parent="1" vertex="1">
          <mxGeometry x="435" y="418" width="50" height="30" as="geometry" />
        </mxCell>
        <mxCell id="11NNA-H-o6uc0P_nEHLL-14" value="Sign off" style="text;html=1;align=center;verticalAlign=middle;resizable=0;points=[];autosize=1;strokeColor=none;fillColor=none;" parent="1" vertex="1">
          <mxGeometry x="340" y="418" width="60" height="30" as="geometry" />
        </mxCell>
        <mxCell id="11NNA-H-o6uc0P_nEHLL-15" value="Response" style="text;html=1;align=center;verticalAlign=middle;resizable=0;points=[];autosize=1;strokeColor=none;fillColor=none;" parent="1" vertex="1">
          <mxGeometry x="540" y="248" width="80" height="30" as="geometry" />
        </mxCell>
        <mxCell id="11NNA-H-o6uc0P_nEHLL-16" value="Login" style="text;html=1;align=center;verticalAlign=middle;resizable=0;points=[];autosize=1;strokeColor=none;fillColor=none;" parent="1" vertex="1">
          <mxGeometry x="535" y="298" width="50" height="30" as="geometry" />
        </mxCell>
      </root>
    </mxGraphModel>
  </diagram>
</mxfile>
